<svg width="32" height="32" viewBox="0 0 32 32" fill="none" xmlns="http://www.w3.org/2000/svg">
<g filter="url(#filter0_b_2934_30381)">
<rect width="32" height="32" rx="10" fill="#0D0D0D" fill-opacity="0.2"/>
<path d="M10.4277 16.7627L9.68249 16.6781L9.68249 16.6781L10.4277 16.7627ZM10.8004 13.4793L11.5456 13.5639L10.8004 13.4793ZM9.70647 18.3934L9.13536 17.9073H9.13536L9.70647 18.3934ZM22.3175 16.6781C22.2708 16.2665 21.8992 15.9707 21.4877 16.0175C21.0761 16.0642 20.7803 16.4357 20.827 16.8473L22.3175 16.6781ZM22.2935 18.3934L21.7224 18.8795L22.2935 18.3934ZM14.1084 9.64468L14.3513 10.3542C14.6546 10.2504 14.8584 9.96526 14.8584 9.64468H14.1084ZM16.8667 8.81521C17.1366 9.12949 17.6101 9.16552 17.9243 8.89569C18.2386 8.62587 18.2747 8.15236 18.0048 7.83809L16.8667 8.81521ZM19.2023 22.9298C19.3476 22.542 19.1511 22.1097 18.7632 21.9643C18.3753 21.819 17.943 22.0156 17.7977 22.4034L19.2023 22.9298ZM14.2023 22.4034C14.0569 22.0156 13.6246 21.819 13.2368 21.9643C12.8489 22.1097 12.6523 22.542 12.7977 22.9298L14.2023 22.4034ZM22.75 11.8333C22.75 12.7998 21.9665 13.5833 21 13.5833V15.0833C22.7949 15.0833 24.25 13.6282 24.25 11.8333H22.75ZM21 13.5833C20.0335 13.5833 19.25 12.7998 19.25 11.8333H17.75C17.75 13.6282 19.2051 15.0833 21 15.0833V13.5833ZM19.25 11.8333C19.25 10.8668 20.0335 10.0833 21 10.0833V8.58329C19.2051 8.58329 17.75 10.0384 17.75 11.8333H19.25ZM21 10.0833C21.9665 10.0833 22.75 10.8668 22.75 11.8333H24.25C24.25 10.0384 22.7949 8.58329 21 8.58329V10.0833ZM20.8143 20.25H11.1857V21.75H20.8143V20.25ZM11.1729 16.8473L11.5456 13.5639L10.0552 13.3947L9.68249 16.6781L11.1729 16.8473ZM10.2776 18.8795C10.7739 18.2964 11.0881 17.5943 11.1729 16.8473L9.68249 16.6781C9.63305 17.1138 9.44841 17.5395 9.13536 17.9073L10.2776 18.8795ZM20.827 16.8473C20.9118 17.5943 21.226 18.2964 21.7224 18.8795L22.8646 17.9073C22.5515 17.5395 22.3669 17.1138 22.3175 16.6781L20.827 16.8473ZM11.1857 20.25C10.683 20.25 10.3393 20.0026 10.1842 19.7292C10.0364 19.4689 10.0372 19.1619 10.2776 18.8795L9.13536 17.9073C8.46151 18.6989 8.4401 19.6951 8.87959 20.4696C9.31167 21.231 10.1647 21.75 11.1857 21.75V20.25ZM20.8143 21.75C21.8353 21.75 22.6883 21.231 23.1204 20.4696C23.5599 19.6951 23.5385 18.6989 22.8646 17.9073L21.7224 18.8795C21.9627 19.1619 21.9635 19.4689 21.8158 19.7292C21.6607 20.0026 21.317 20.25 20.8143 20.25V21.75ZM14.8584 9.64468V9.55825H13.3584V9.64468H14.8584ZM11.5456 13.5639C11.7084 12.1292 12.7912 10.8884 14.3513 10.3542L13.8654 8.93512C11.8548 9.62352 10.2942 11.2884 10.0552 13.3947L11.5456 13.5639ZM16 6.91663C14.5411 6.91663 13.3584 8.09932 13.3584 9.55825H14.8584C14.8584 8.92775 15.3695 8.41663 16 8.41663V6.91663ZM16 8.41663C16.3464 8.41663 16.6562 8.57002 16.8667 8.81521L18.0048 7.83809C17.5215 7.27515 16.8022 6.91663 16 6.91663V8.41663ZM17.7977 22.4034C17.5477 23.0703 16.8537 23.5833 16 23.5833V25.0833C17.4546 25.0833 18.7244 24.2049 19.2023 22.9298L17.7977 22.4034ZM16 23.5833C15.1462 23.5833 14.4522 23.0703 14.2023 22.4034L12.7977 22.9298C13.2756 24.2049 14.5453 25.0833 16 25.0833V23.5833Z" fill="#F5F5F5"/>
</g>
<defs>
<filter id="filter0_b_2934_30381" x="-20" y="-20" width="72" height="72" filterUnits="userSpaceOnUse" color-interpolation-filters="sRGB">
<feFlood flood-opacity="0" result="BackgroundImageFix"/>
<feGaussianBlur in="BackgroundImageFix" stdDeviation="10"/>
<feComposite in2="SourceAlpha" operator="in" result="effect1_backgroundBlur_2934_30381"/>
<feBlend mode="normal" in="SourceGraphic" in2="effect1_backgroundBlur_2934_30381" result="shape"/>
</filter>
</defs>
</svg>
